<svg xmlns="http://www.w3.org/2000/svg" viewBox="0 0 128 128">
  <defs>
    <linearGradient id="gold-grad" x1="0%" y1="100%" x2="100%" y2="0%">
      <stop offset="0%" stop-color="#9A7432"/>
      <stop offset="15%" stop-color="#CBA358"/>
      <stop offset="50%" stop-color="#F7E5A9"/>
      <stop offset="65%" stop-color="#D8B467"/>
      <stop offset="100%" stop-color="#9A7432"/>
    </linearGradient>
    <linearGradient id="dark-grad" x1="0%" y1="0%" x2="100%" y2="100%">
      <stop offset="0%" stop-color="#16161a"/>
      <stop offset="100%" stop-color="#0b0b0d"/>
    </linearGradient>
    <filter id="star-glow" x="-50%" y="-50%" width="200%" height="200%">
      <feGaussianBlur stdDeviation="1.2" result="blur"/>
      <feMerge>
        <feMergeNode in="blur"/>
        <feMergeNode in="SourceGraphic"/>
      </feMerge>
    </filter>
  </defs>
  <rect width="128" height="128" rx="28" fill="url(#dark-grad)" stroke="#26262b" stroke-width="2"/>
  <g transform="translate(14, 14)">
    <path d="M50 12 L64 36 L72 30 L88 56 L76 56 L64 42 L52 56 Z" fill="url(#gold-grad)" opacity="0.85"/>
    <path d="M50 12 L32 40 L44 40 L20 72 L50 64 L58 48 L46 48 Z" fill="url(#gold-grad)"/>
    <path d="M50 12 C58 20 72 26 86 24 C80 34 68 38 58 40 C64 46 62 54 54 58 C48 52 46 42 50 12 Z" fill="url(#gold-grad)"/>
    <path d="M16 84 L50 74 L84 84 L50 94 Z" fill="url(#gold-grad)" stroke="url(#gold-grad)" stroke-width="1" fill-opacity="0.2"/>
    <path d="M30 81 L50 76 L70 81" stroke="url(#gold-grad)" stroke-width="2" stroke-linecap="round" fill="none"/>
    <circle cx="54" cy="28" r="2.5" fill="#ffffff" filter="url(#star-glow)"/>
    <g opacity="0.15" fill="url(#gold-grad)">
      <rect x="25" y="88" width="4" height="1"/>
      <rect x="35" y="90" width="8" height="1"/>
      <rect x="48" y="87" width="12" height="1"/>
      <rect x="65" y="89" width="6" height="1"/>
      <rect x="75" y="87" width="3" height="1"/>
    </g>
  </g>
</svg>
